<svg width="601" height="601" viewBox="0 0 601 601" fill="none" xmlns="http://www.w3.org/2000/svg">
<path fill-rule="evenodd" clip-rule="evenodd" d="M559.143 216.92C558.893 163.626 494.47 137.086 456.753 174.74L179.724 451.306C141.781 489.185 168.782 554.018 222.396 553.767L540.782 552.274C551.789 552.223 560.667 541.882 560.607 529.181L559.143 216.92ZM32.7054 591.456C33.0154 591.661 33.2893 591.915 33.5122 592.212L35.085 594.308C35.4009 594.728 36.0162 594.773 36.3889 594.401V594.401C36.6604 594.13 37.0774 594.071 37.4162 594.25C45.0824 598.313 53.6167 600.559 62.6031 600.517L540.998 598.274C574.023 598.119 600.652 567.1 600.474 528.994L598.317 68.9992C598.197 43.4384 586.048 21.1801 568.091 9.34135C567.781 9.13687 567.507 8.8826 567.284 8.5854L565.712 6.48883C565.396 6.06779 564.781 6.02388 564.408 6.39582V6.39582C564.137 6.66674 563.72 6.72623 563.382 6.54681C555.714 2.48538 547.18 0.238224 538.194 0.280355L59.7993 2.52334C26.7731 2.67818 0.144838 33.6956 0.323507 71.803L2.48022 531.798C2.60006 557.358 14.7505 579.616 32.7054 591.456ZM41.6538 383.878C41.9037 437.172 106.328 463.712 144.044 426.058L421.074 149.491C459.017 111.612 432.016 46.7787 378.402 47.0301L60.015 48.5228C49.0064 48.5744 40.1302 58.9137 40.1897 71.616L41.6538 383.878Z" fill="black"/>
</svg>
