<svg width="12" height="12" viewBox="0 0 12 12" fill="none" xmlns="http://www.w3.org/2000/svg">
<path fill-rule="evenodd" clip-rule="evenodd" d="M11.2 2.34294L1.4813 11.1538H10.8C11.0209 11.1538 11.2 10.9644 11.2 10.7308V2.34294ZM0.610303 11.8364L0.660317 11.8981L0.683774 11.8769C0.840136 11.9558 1.01519 12 1.2 12H10.8C11.4627 12 12 11.4317 12 10.7308V2.26923C12 1.79495 11.7541 1.38143 11.3897 1.16357L11.3397 1.10185L11.3162 1.12312C11.1598 1.04419 10.9848 1 10.8 1H1.2C0.537258 1 0 1.56825 0 2.26923V10.7308C0 11.205 0.245948 11.6186 0.610303 11.8364ZM0.8 10.6571L10.5187 1.84615H1.2C0.979088 1.84615 0.8 2.03557 0.8 2.26923V10.6571Z" fill="#505050"/>
<path fill-rule="evenodd" clip-rule="evenodd" d="M11.2 1.34294L1.4813 10.1538H10.8C11.0209 10.1538 11.2 9.96439 11.2 9.73077V1.34294ZM0.610303 10.8364L0.660317 10.8981L0.683774 10.8769C0.840136 10.9558 1.01519 11 1.2 11H10.8C11.4627 11 12 10.4317 12 9.73077V1.26923C12 0.794953 11.7541 0.381429 11.3897 0.16357L11.3397 0.101852L11.3162 0.123115C11.1598 0.0441861 10.9848 0 10.8 0H1.2C0.537258 0 0 0.568252 0 1.26923V9.73077C0 10.205 0.245948 10.6186 0.610303 10.8364ZM0.8 9.65707L10.5187 0.846154H1.2C0.979088 0.846154 0.8 1.03557 0.8 1.26923V9.65707Z" fill="black"/>
</svg>
