<svg width="16" height="16" viewBox="0 0 16 16" fill="none" xmlns="http://www.w3.org/2000/svg">
<rect width="16" height="16" rx="2" fill="black"/>
<path fill-rule="evenodd" clip-rule="evenodd" d="M13.2 3.34294L3.4813 12.1538H12.8C13.0209 12.1538 13.2 11.9644 13.2 11.7308V3.34294ZM2.6103 12.8364L2.66032 12.8981L2.68377 12.8769C2.84014 12.9558 3.01519 13 3.2 13H12.8C13.4627 13 14 12.4317 14 11.7308V3.26923C14 2.79495 13.7541 2.38143 13.3897 2.16357L13.3397 2.10185L13.3162 2.12312C13.1598 2.04419 12.9848 2 12.8 2H3.2C2.53726 2 2 2.56825 2 3.26923V11.7308C2 12.205 2.24595 12.6186 2.6103 12.8364ZM2.8 11.6571L12.5187 2.84615H3.2C2.97909 2.84615 2.8 3.03557 2.8 3.26923V11.6571Z" fill="white"/>
</svg>
